<?xml version="1.0" encoding="UTF-8" standalone="no"?> <svg id="Layer_1" data-name="Layer 1" xmlns="http://www.w3.org/2000/svg" viewBox="0 0 64 64"><path d="M56.739,35.224a6.022,6.022,0,0,1,0-6.448l3.215-5.047a1,1,0,0,0-.477-1.468L53.91,20.068a6.024,6.024,0,0,1-3.789-5.214l-.368-5.972a1,1,0,0,0-1.247-.907l-5.8,1.493a6.028,6.028,0,0,1-6.123-1.989L32.771,2.863a1.034,1.034,0,0,0-1.542,0L27.417,7.479a6.027,6.027,0,0,1-6.124,1.989l-5.8-1.493a.988.988,0,0,0-.837.159,1,1,0,0,0-.41.747l-.368,5.973a6.021,6.021,0,0,1-3.789,5.213L4.522,22.261a1,1,0,0,0-.477,1.467l3.216,5.048a6.022,6.022,0,0,1,0,6.448L4.045,40.271a1,1,0,0,0,.477,1.468l5.568,2.193a6.024,6.024,0,0,1,3.789,5.214l.368,5.972a1,1,0,0,0,1.247.907l5.8-1.493a6.026,6.026,0,0,1,6.123,1.989l3.813,4.616a1,1,0,0,0,1.542,0l3.812-4.616a6.032,6.032,0,0,1,6.124-1.989l5.8,1.493a.988.988,0,0,0,.837-.159,1,1,0,0,0,.41-.747l.368-5.973a6.021,6.021,0,0,1,3.789-5.213l5.568-2.194a1,1,0,0,0,.477-1.467Z" style="fill:#ffcb52"/><circle cx="32" cy="32" r="18" style="fill:#d98285"/><path d="M18,32H16A16.019,16.019,0,0,1,32,16v2A14.015,14.015,0,0,0,18,32Z" style="fill:#e6eef3"/></svg>